<svg width="512" height="512" viewBox="0 0 512 512" fill="none" xmlns="http://www.w3.org/2000/svg">
  <rect width="512" height="512" rx="120" fill="#0F172A"/>
  <path d="M120 160C120 137.909 137.909 120 160 120H352C374.091 120 392 137.909 392 160V352C392 374.091 374.091 392 352 392H160C137.909 392 120 374.091 120 352V160Z" fill="url(#paint0_linear)"/>
  <path d="M180 220L256 160L332 220V320L256 360L180 320V220Z" fill="white" fill-opacity="0.1"/>
  <path d="M256 180V300M210 210L256 180L302 210M210 270L256 300L302 270" stroke="white" stroke-width="24" stroke-linecap="round" stroke-linejoin="round"/>
  <circle cx="256" cy="240" r="40" stroke="white" stroke-width="12" stroke-dasharray="20 10"/>
  <defs>
    <linearGradient id="paint0_linear" x1="120" y1="120" x2="392" y2="392" gradientUnits="userSpaceOnUse">
      <stop stop-color="#2563EB"/>
      <stop offset="1" stop-color="#1D4ED8"/>
    </linearGradient>
  </defs>
</svg>
